<svg xmlns="http://www.w3.org/2000/svg" width="20" height="20" viewBox="0 0 20 20">
    <g fill="none" fill-rule="evenodd">
        <g>
            <g>
                <g>
                    <g>
                        <g>
                            <g>
                                <path d="M0 0H20V20H0z" transform="translate(-454 -616) translate(264 506) translate(34 80) translate(28) translate(18) translate(110 30)"/>
                                <g fill="#B0B0B0">
                                    <path fill-rule="nonzero" d="M3.127 14.667c-.056 0-.11-.018-.157-.052-.09-.066-.129-.182-.096-.29L4.438 9.16.17 5.886c-.088-.068-.125-.184-.09-.29.034-.107.131-.18.243-.184l5.35-.153L7.457.176C7.495.071 7.595 0 7.707 0c.112 0 .211.07.249.175l1.81 5.083 5.378.154c.111.003.209.077.243.183.035.106-.002.223-.091.291l-4.27 3.274 1.523 5.167c.032.107-.007.223-.097.289-.09.066-.212.068-.305.004l-4.44-3.036-4.432 3.036c-.045.031-.097.047-.148.047zM7.707 11c.052 0 .104.015.149.046l3.978 2.72-1.365-4.63c-.03-.106.006-.219.093-.285l3.823-2.931-4.813-.138c-.109-.003-.204-.073-.24-.175L7.708 1.055l-1.6 4.55c-.036.104-.132.174-.24.177l-4.788.137 3.823 2.932c.087.067.124.18.092.287l-1.4 4.622 3.962-2.714c.045-.03.097-.046.15-.046z" transform="translate(-454 -616) translate(264 506) translate(34 80) translate(28) translate(18) translate(110 30) translate(2 2.667)"/>
                                    <path d="M3.127 14.667c-.056 0-.11-.018-.157-.052-.09-.066-.129-.182-.096-.29L4.438 9.16.17 5.886c-.088-.068-.125-.184-.09-.29.034-.107.131-.18.243-.184l5.35-.153L7.457.176C7.495.071 7.595 0 7.707 0c.112 0 .211.07.249.175l1.81 5.083 5.378.154c.111.003.209.077.243.183.035.106-.002.223-.091.291l-4.27 3.274 1.523 5.167c.032.107-.007.223-.097.289-.09.066-.212.068-.305.004l-4.44-3.036-4.432 3.036c-.045.031-.097.047-.148.047z" transform="translate(-454 -616) translate(264 506) translate(34 80) translate(28) translate(18) translate(110 30) translate(2 2.667)"/>
                                </g>
                            </g>
                        </g>
                    </g>
                </g>
            </g>
        </g>
    </g>
</svg>
