<svg width="183" height="15" viewBox="0 0 183 15" fill="none" xmlns="http://www.w3.org/2000/svg">
<path d="M22 0.453153C21.9767 0.207363 21.7469 -0.00103253 21.5 1.35485e-05L18 1.35485e-05C17.8695 0.00102747 17.7402 0.0556603 17.6484 0.148465L11 6.7969L4.35936 0.148465C4.26576 0.0538078 4.13311 -0.000990032 3.99998 1.35485e-05L0.50001 1.35485e-05C0.238185 1.35485e-05 -1.52588e-05 0.23823 -1.52588e-05 0.500028V14.5C-1.52588e-05 14.7618 0.238185 15 0.50001 15H3.99998C4.13311 15.001 4.26576 14.9463 4.35936 14.8516L11 8.20315L17.6484 14.8516C17.7402 14.9444 17.8695 14.999 18 15H21.5C21.7618 15 22 14.7618 22 14.5C22 9.81876 22 5.1311 22 0.453153ZM10.2969 7.50003L3.79686 14H0.999985V1.00003L3.79686 1.00003L10.2969 7.50003Z" fill="#212121"/>
<path d="M43.84 0.44V14.68H41.56V5.84L37.78 14.68H36.08L32.28 5.94V14.68H30V0.44H32.04L36.94 11.58L41.8 0.44H43.84Z" fill="#212121"/>
<path d="M57.4322 4.58V14.68H54.9722V13.06C54.6655 13.62 54.2255 14.06 53.6522 14.38C53.0789 14.6867 52.4255 14.84 51.6922 14.84C50.8122 14.84 50.0322 14.6267 49.3522 14.2C48.6722 13.7733 48.1455 13.1667 47.7722 12.38C47.3989 11.5933 47.2122 10.68 47.2122 9.64C47.2122 8.6 47.3989 7.68 47.7722 6.88C48.1589 6.06667 48.6922 5.44 49.3722 5C50.0522 4.54667 50.8255 4.32 51.6922 4.32C52.4255 4.32 53.0789 4.48 53.6522 4.8C54.2255 5.10667 54.6655 5.54 54.9722 6.1V4.58H57.4322ZM52.3722 12.88C53.1989 12.88 53.8389 12.5933 54.2922 12.02C54.7455 11.4467 54.9722 10.64 54.9722 9.6C54.9722 8.53333 54.7455 7.71333 54.2922 7.14C53.8389 6.56667 53.1922 6.28 52.3522 6.28C51.5255 6.28 50.8789 6.58 50.4122 7.18C49.9589 7.76667 49.7322 8.58667 49.7322 9.64C49.7322 10.68 49.9589 11.48 50.4122 12.04C50.8789 12.6 51.5322 12.88 52.3722 12.88Z" fill="#212121"/>
<path d="M70.715 4.6L66.295 14.68H64.115L59.755 4.6H62.375L65.275 11.84L68.235 4.6H70.715Z" fill="#212121"/>
<path d="M81.6786 9.76H74.7186C74.7719 10.84 75.0386 11.64 75.5186 12.16C76.0119 12.6667 76.7386 12.92 77.6986 12.92C78.8053 12.92 79.8319 12.56 80.7786 11.84L81.4986 13.56C81.0186 13.9467 80.4253 14.26 79.7186 14.5C79.0253 14.7267 78.3186 14.84 77.5986 14.84C75.9453 14.84 74.6453 14.3733 73.6986 13.44C72.7519 12.5067 72.2786 11.2267 72.2786 9.6C72.2786 8.57333 72.4853 7.66 72.8986 6.86C73.3119 6.06 73.8919 5.44 74.6386 5C75.3853 4.54667 76.2319 4.32 77.1786 4.32C78.5653 4.32 79.6586 4.77333 80.4586 5.68C81.2719 6.57333 81.6786 7.80667 81.6786 9.38V9.76ZM77.2386 6.12C76.5719 6.12 76.0253 6.32 75.5986 6.72C75.1853 7.10667 74.9186 7.67333 74.7986 8.42H79.4986C79.4186 7.66 79.1853 7.08667 78.7986 6.7C78.4253 6.31333 77.9053 6.12 77.2386 6.12Z" fill="#212121"/>
<path d="M90.5756 4.32C92.989 4.32 94.1956 5.70667 94.1956 8.48V14.68H91.6956V8.6C91.6956 7.8 91.5423 7.22 91.2356 6.86C90.929 6.48667 90.4556 6.3 89.8156 6.3C89.0556 6.3 88.4423 6.54667 87.9756 7.04C87.509 7.52 87.2756 8.16 87.2756 8.96V14.68H84.7956V7.44C84.7956 6.37333 84.7423 5.42 84.6356 4.58H86.9756L87.1556 6.24C87.5023 5.62667 87.969 5.15333 88.5556 4.82C89.1556 4.48667 89.829 4.32 90.5756 4.32Z" fill="#212121"/>
<path d="M104.515 0.44H113.815V2.5H107.075V6.4H113.415V8.48H107.075V14.68H104.515V0.44Z" fill="#212121"/>
<path d="M116.78 4.58H119.26V14.68H116.78V4.58ZM119.4 0V2.46H116.62V0H119.4Z" fill="#212121"/>
<path d="M128.775 4.32C131.188 4.32 132.395 5.70667 132.395 8.48V14.68H129.895V8.6C129.895 7.8 129.742 7.22 129.435 6.86C129.128 6.48667 128.655 6.3 128.015 6.3C127.255 6.3 126.642 6.54667 126.175 7.04C125.708 7.52 125.475 8.16 125.475 8.96V14.68H122.995V7.44C122.995 6.37333 122.942 5.42 122.835 4.58H125.175L125.355 6.24C125.702 5.62667 126.168 5.15333 126.755 4.82C127.355 4.48667 128.028 4.32 128.775 4.32Z" fill="#212121"/>
<path d="M145.706 4.58V14.68H143.246V13.06C142.939 13.62 142.499 14.06 141.926 14.38C141.352 14.6867 140.699 14.84 139.966 14.84C139.086 14.84 138.306 14.6267 137.626 14.2C136.946 13.7733 136.419 13.1667 136.046 12.38C135.672 11.5933 135.486 10.68 135.486 9.64C135.486 8.6 135.672 7.68 136.046 6.88C136.432 6.06667 136.966 5.44 137.646 5C138.326 4.54667 139.099 4.32 139.966 4.32C140.699 4.32 141.352 4.48 141.926 4.8C142.499 5.10667 142.939 5.54 143.246 6.1V4.58H145.706ZM140.646 12.88C141.472 12.88 142.112 12.5933 142.566 12.02C143.019 11.4467 143.246 10.64 143.246 9.6C143.246 8.53333 143.019 7.71333 142.566 7.14C142.112 6.56667 141.466 6.28 140.626 6.28C139.799 6.28 139.152 6.58 138.686 7.18C138.232 7.76667 138.006 8.58667 138.006 9.64C138.006 10.68 138.232 11.48 138.686 12.04C139.152 12.6 139.806 12.88 140.646 12.88Z" fill="#212121"/>
<path d="M155.208 4.32C157.622 4.32 158.828 5.70667 158.828 8.48V14.68H156.328V8.6C156.328 7.8 156.175 7.22 155.868 6.86C155.562 6.48667 155.088 6.3 154.448 6.3C153.688 6.3 153.075 6.54667 152.608 7.04C152.142 7.52 151.908 8.16 151.908 8.96V14.68H149.428V7.44C149.428 6.37333 149.375 5.42 149.268 4.58H151.608L151.788 6.24C152.135 5.62667 152.602 5.15333 153.188 4.82C153.788 4.48667 154.462 4.32 155.208 4.32Z" fill="#212121"/>
<path d="M167.059 14.84C166.006 14.84 165.093 14.6267 164.319 14.2C163.546 13.7733 162.953 13.1733 162.539 12.4C162.126 11.6133 161.919 10.6933 161.919 9.64C161.919 8.58667 162.133 7.66 162.559 6.86C162.999 6.06 163.613 5.44 164.399 5C165.199 4.54667 166.119 4.32 167.159 4.32C167.879 4.32 168.573 4.43333 169.239 4.66C169.919 4.88667 170.459 5.2 170.859 5.6L170.159 7.36C169.733 7.01333 169.279 6.75333 168.799 6.58C168.319 6.39333 167.846 6.3 167.379 6.3C166.473 6.3 165.766 6.58667 165.259 7.16C164.753 7.72 164.499 8.53333 164.499 9.6C164.499 10.6667 164.746 11.48 165.239 12.04C165.746 12.6 166.459 12.88 167.379 12.88C167.846 12.88 168.319 12.7867 168.799 12.6C169.279 12.4133 169.733 12.1467 170.159 11.8L170.859 13.56C170.433 13.96 169.879 14.2733 169.199 14.5C168.519 14.7267 167.806 14.84 167.059 14.84Z" fill="#212121"/>
<path d="M182.378 9.76H175.418C175.471 10.84 175.738 11.64 176.218 12.16C176.711 12.6667 177.438 12.92 178.398 12.92C179.504 12.92 180.531 12.56 181.478 11.84L182.198 13.56C181.718 13.9467 181.124 14.26 180.418 14.5C179.724 14.7267 179.018 14.84 178.298 14.84C176.644 14.84 175.344 14.3733 174.398 13.44C173.451 12.5067 172.978 11.2267 172.978 9.6C172.978 8.57333 173.184 7.66 173.598 6.86C174.011 6.06 174.591 5.44 175.338 5C176.084 4.54667 176.931 4.32 177.878 4.32C179.264 4.32 180.358 4.77333 181.158 5.68C181.971 6.57333 182.378 7.80667 182.378 9.38V9.76ZM177.938 6.12C177.271 6.12 176.724 6.32 176.298 6.72C175.884 7.10667 175.618 7.67333 175.498 8.42H180.198C180.118 7.66 179.884 7.08667 179.498 6.7C179.124 6.31333 178.604 6.12 177.938 6.12Z" fill="#212121"/>
</svg>
