<svg xmlns="http://www.w3.org/2000/svg" width="20" height="20" viewBox="0 0 20 20">
    <g fill="none" fill-rule="evenodd">
        <g>
            <g>
                <g>
                    <g>
                        <g>
                            <g>
                                <path d="M0 0H20V20H0z" transform="translate(-374 -696) translate(264 506) translate(34 80) translate(28) translate(18) translate(30 110)"/>
                                <g fill="#222">
                                    <path fill-rule="nonzero" d="M8.165 2.87L7.344.634l-1.69 3.094c-.007.025-.026.047-.057.066l-3.38 2.48-1.804 2.31 5.363 8.055 3.683-3.32.906-4.82c.007-.062.041-.11.104-.14l3.38-1.547.397-1.906-3.04-.075c-.063-.012-.107-.035-.132-.066L9.78 3.35l-1.492-.368c-.063-.012-.104-.05-.123-.112zm1.851.179L11.3 4.454l3.183.076c.062.012.11.037.141.075.038.044.05.098.038.16l-.472 2.207c-.013.057-.044.1-.095.132l-3.38 1.556-.906 4.792c-.013.043-.032.075-.057.094L5.87 17.054c-.038.038-.082.057-.132.057l-.02-.01c-.05 0-.09-.025-.122-.075L.036 8.69c-.05-.082-.048-.157.009-.227L1.934 6.03l.037-.037 3.38-2.472L7.211.097c.045-.075.105-.107.18-.094.088 0 .142.04.16.122l.926 2.528 1.445.34c.044.012.075.03.094.056zM7.382 1.52L6.72 4.303l1.133.123c.05.006.09.028.122.066.038.044.05.09.038.141-.012.113-.072.17-.18.17l-.027-.01-1.341-.141c-.05 0-.095-.025-.133-.075-.03-.05-.04-.1-.028-.151l.709-2.99c.03-.113.106-.16.226-.142.05.013.091.041.123.085.025.044.031.092.019.142zm2.01 6.12l4.061-1.536c.113-.044.192-.01.236.103.019.044.019.091 0 .142-.019.044-.053.075-.104.094L9.553 7.981 7.42 9.528 6.258 13.47c-.025.082-.082.123-.17.123h-.057c-.05-.012-.088-.04-.113-.085-.025-.044-.032-.091-.019-.141l1.17-4.009c.026-.05.051-.085.076-.103l2.21-1.594.038-.02z" transform="translate(-374 -696) translate(264 506) translate(34 80) translate(28) translate(18) translate(30 110) translate(2.667 1.333)"/>
                                    <path d="M8.165 2.87L7.344.634l-1.69 3.094c-.007.025-.026.047-.057.066l-3.38 2.48-1.804 2.31 5.363 8.055 3.683-3.32.906-4.82c.007-.062.041-.11.104-.14l3.38-1.547.397-1.906-3.04-.075c-.063-.012-.107-.035-.132-.066L9.78 3.35l-1.492-.368c-.063-.012-.104-.05-.123-.112z" transform="translate(-374 -696) translate(264 506) translate(34 80) translate(28) translate(18) translate(30 110) translate(2.667 1.333)"/>
                                </g>
                            </g>
                        </g>
                    </g>
                </g>
            </g>
        </g>
    </g>
</svg>
