<svg xmlns="http://www.w3.org/2000/svg" width="20" height="20" viewBox="0 0 20 20">
    <g fill="none" fill-rule="evenodd">
        <g>
            <g>
                <g>
                    <g>
                        <g>
                            <g>
                                <path d="M0 0H20V20H0z" transform="translate(-454 -696) translate(264 506) translate(34 80) translate(28) translate(18) translate(110 110)"/>
                                <g>
                                    <path fill-rule="nonzero" d="M16.928.246l.982-.241c.105-.02.182.023.228.13l.287.917c.014.047.01.09-.01.13v.01l-.783 2.115c-.02.06-.066.1-.139.12l-3.511.876 1.577 1.833c.06.087.062.167.01.241-.047.08-.12.111-.219.09l-1.458-.392-1.13-.04-.685 2.235-.05.09-.654.665-.199 2.235c0 .06-.026.114-.08.16l-.406.232.397.644c.06.094.043.182-.05.262l-.982.735c-.04.027-.08.04-.119.04H8.902c-.04 0-.079-.013-.119-.04l-.962-.715c-.1-.08-.116-.168-.05-.262l.397-.644-.407-.231c-.059-.047-.089-.1-.089-.161l-.188-2.235-.655-.665-.05-.09-.684-2.235-1.13.04-1.459.393c-.106.027-.179-.004-.218-.09-.053-.075-.05-.155.01-.242l1.577-1.833-3.511-.875c-.073-.02-.12-.064-.14-.131L.452 1.193c-.02-.034-.023-.074-.01-.121L.72.166c.013-.047.04-.084.08-.11C.844.027.893.017.946.024l.982.242c.073.02.12.06.139.12.026.068.02.128-.02.182l-.317.483c-.067.1-.16.117-.278.05-.1-.067-.112-.161-.04-.282L1.562.58 1.036.458l-.188.634.813 1.037 4.643.201c.04 0 .066.007.079.02l.476.232.813-.363c.06-.027.116-.023.17.01l.535.312h2.073l.556-.332c.059-.033.115-.037.168-.01l.824.363.475-.232c.014-.013.037-.02.07-.02l4.652-.201.824-1.037-.199-.634-.525.12.148.242c.073.121.057.215-.05.282-.112.074-.201.057-.267-.05l-.317-.483c-.047-.061-.054-.121-.02-.182.02-.06.066-.1.139-.12zm-5 2.718l-.803-.362-.526.312c-.02.013-.053.02-.1.02H8.329c-.04 0-.07-.006-.09-.02l-.506-.292-.803.363c-.06.02-.113.016-.16-.01l-.515-.262-4.692-.191c-.072 0-.12-.024-.139-.071l-.188-.242.317.886 3.66.906.1.04.04.04.01.02.823.947.04.08.188.655.01.01.714 2.345.674.685c.034.047.05.087.05.12l.198 2.195.308.191.198-.312-.02-.01c-.105-.08-.122-.174-.049-.282.08-.107.172-.124.278-.05l.168.12v.011l.229.171c.046.034.072.077.079.131.006.054-.007.1-.04.14-.026.048-.07.075-.129.081-.046.007-.089-.006-.129-.04l-.07-.04-.178.292.715.413.734-.433-.179-.292-.06.04c-.046.034-.095.047-.148.04-.046-.006-.086-.03-.12-.07-.032-.047-.046-.097-.039-.151.007-.047.03-.088.07-.12l.228-.182.01-.01.168-.121c.106-.074.199-.057.278.05.066.108.05.201-.05.282l-.02.01.189.312.317-.19.199-2.195c0-.034.016-.074.05-.121l.674-.685.714-2.345.01-.01.189-.655.039-.08.823-.956h.01v-.01l.04-.04.1-.041 3.66-.906.327-.886-.199.242c-.04.047-.085.07-.138.07l-4.692.191-.516.262c-.046.027-.1.03-.159.01zm.953 2.668l1.08.05.884.242-1.2-1.41-.646.756-.118.362zm-2.52 6.221l-.833.514c-.066.033-.136.033-.208 0l-.824-.493-.297.493.763.574h.913l.784-.594-.298-.494zM4.013 5.944l.882-.241 1.081-.04-.119-.383-.645-.745-1.2 1.41z" transform="translate(-454 -696) translate(264 506) translate(34 80) translate(28) translate(18) translate(110 110) translate(.667 3.333)"/>
                                    <path fill="#B0B0B0" d="M16.928.246l.982-.241c.105-.02.182.023.228.13l.287.917c.014.047.01.09-.01.13v.01l-.783 2.115c-.02.06-.066.1-.139.12l-3.511.876 1.577 1.833c.06.087.062.167.01.241-.047.08-.12.111-.219.09l-1.458-.392-1.13-.04-.685 2.235-.05.09-.654.665-.199 2.235c0 .06-.026.114-.08.16l-.406.232.397.644c.06.094.043.182-.05.262l-.982.735c-.04.027-.08.04-.119.04H8.902c-.04 0-.079-.013-.119-.04l-.962-.715c-.1-.08-.116-.168-.05-.262l.397-.644-.407-.231c-.059-.047-.089-.1-.089-.161l-.188-2.235-.655-.665-.05-.09-.684-2.235-1.13.04-1.459.393c-.106.027-.179-.004-.218-.09-.053-.075-.05-.155.01-.242l1.577-1.833-3.511-.875c-.073-.02-.12-.064-.14-.131L.452 1.193c-.02-.034-.023-.074-.01-.121L.72.166c.013-.047.04-.084.08-.11C.844.027.893.017.946.024l.982.242c.073.02.12.06.139.12.026.068.02.128-.02.182l-.317.483c-.067.1-.16.117-.278.05-.1-.067-.112-.161-.04-.282L1.562.58 1.036.458l-.188.634.813 1.037 4.643.201c.04 0 .066.007.079.02l.476.232.813-.363c.06-.027.116-.023.17.01l.535.312h2.073l.556-.332c.059-.033.115-.037.168-.01l.824.363.475-.232c.014-.013.037-.02.07-.02l4.652-.201.824-1.037-.199-.634-.525.12.148.242c.073.121.057.215-.05.282-.112.074-.201.057-.267-.05l-.317-.483c-.047-.061-.054-.121-.02-.182.02-.06.066-.1.139-.12z" transform="translate(-454 -696) translate(264 506) translate(34 80) translate(28) translate(18) translate(110 110) translate(.667 3.333)"/>
                                </g>
                            </g>
                        </g>
                    </g>
                </g>
            </g>
        </g>
    </g>
</svg>
