<svg xmlns="http://www.w3.org/2000/svg" width="20" height="20" viewBox="0 0 20 20">
    <g fill="none" fill-rule="evenodd">
        <g>
            <g>
                <g>
                    <g>
                        <g>
                            <g>
                                <path d="M0 0H20V20H0z" transform="translate(-374 -616) translate(264 506) translate(34 80) translate(28) translate(18) translate(30 30)"/>
                                <g fill="#B0B0B0" fill-rule="nonzero">
                                    <path d="M9.898 4.927C9.898 2.206 7.688 0 4.962 0 2.237 0 .026 2.206.026 4.927h2.918c0-1.11.906-2.013 2.018-2.013 1.112 0 2.017.903 2.017 2.013 0 .75-.414 1.406-1.025 1.752v.002c-.965.562-1.72 1.442-2.126 2.495-.137.359-.234.736-.284 1.13h.002v.872H6.53v-.873h-.005c.16-.483.5-.885.939-1.13H7.46C8.92 8.32 9.898 6.739 9.898 4.928zM3.546 12.309H6.529V14.768999999999998H3.546z" transform="translate(-374 -616) translate(264 506) translate(34 80) translate(28) translate(18) translate(30 30) translate(5 2)"/>
                                </g>
                            </g>
                        </g>
                    </g>
                </g>
            </g>
        </g>
    </g>
</svg>
